<svg id="Object" xmlns="http://www.w3.org/2000/svg" xmlns:xlink="http://www.w3.org/1999/xlink" viewBox="0 0 440.96 472.12">
    <defs>
        <style>
            .cls-1 {
                fill: none;
            }

            .cls-2 {
                clip-path: url(#clip-path);
            }

            .cls-3 {
                clip-path: url(#clip-path-2);
            }

            .cls-4 {
                fill: #fff;
            }

            .cls-5 {
                fill: #f7583e;
            }

            .cls-6 {
                fill: #caeaea;
            }

            .cls-7 {
                fill: #fba89b;
            }

            .cls-8 {
                fill: #f8e8e9;
            }

            .cls-9 {
                fill: #f2d2d5;
            }

            .cls-10 {
                fill: #ff7d6c;
            }

            .cls-11 {
                fill: #fd7692;
            }

            .cls-12 {
                fill: #ffedf1;
            }
        </style>
        <clipPath id="clip-path" transform="translate(-105.25 -649.35)">
            <circle class="cls-1" cx="311" cy="911" r="137" transform="translate(-633.72 726.21) rotate(-60.08)" />
        </clipPath>
        <clipPath id="clip-path-2" transform="translate(-105.25 -649.35)">
            <rect class="cls-1" x="166.5" y="762.4" width="292" height="292" transform="translate(494.69 -34.81) rotate(29.92)" />
        </clipPath>
    </defs>
    <title>round_img</title>
    <g class="cls-2">
        <g class="cls-3">
            <rect id="_Rectangle_" data-name="&lt;Rectangle&gt;" class="cls-4" x="179.72" y="697.07" width="292" height="376.68" transform="translate(379.74 -693.82) rotate(29.92)" />
            <path class="cls-1" d="M303,677.24c4.59-4.8,9.2-9.61,14.14-14.05l-24.05-13.84-25.46,44.24c3,6.49,6,12.91,10,18.84C282.81,698.76,293,687.7,303,677.24Z" transform="translate(-105.25 -649.35)" />
            <path class="cls-1" d="M139.41,995.08a2,2,0,0,1-.27.26l1.17.67c1.21-1.54,2.43-3,3.6-4.52A14.06,14.06,0,0,0,139.41,995.08Z" transform="translate(-105.25 -649.35)" />
            <path class="cls-1" d="M383.82,701.54l-7.72-4.44q.83,6.24,1.88,12.45C380,707,381.87,704.33,383.82,701.54Z" transform="translate(-105.25 -649.35)" />
            <path class="cls-1" d="M460.46,944l3.15-5.47q-1.49.7-3,1.33Q460.54,941.92,460.46,944Z" transform="translate(-105.25 -649.35)" />
            <path class="cls-1" d="M136.65,992.34a17.47,17.47,0,0,1,7.27-5,1.63,1.63,0,0,1,2.25,1.23c.65-.86,1.27-1.72,1.84-2.55,3.48-5.07,6.93-10.19,10.49-15.23l-3.68.37a2,2,0,0,1-2-1.91,1.91,1.91,0,0,1,1.89-1.89l5.16-.51a1.6,1.6,0,0,1,1.15.37q2.6-3.6,5.31-7.11l-.59.32c-2.15,1.16-4.13-2.16-2-3.32l6.28-3.38q-.44-1.92-.9-3.84a1.67,1.67,0,0,1-1.27,1.14l-6.24,1a2,2,0,0,1-2.39-1.37,1.85,1.85,0,0,1,1.33-2.31l6.24-1a2.22,2.22,0,0,1,1.83.49c-.9-3.75-1.84-7.5-2.84-11.25q-.84-3.15-1.64-6.32l-1.65-.21a2,2,0,0,1-2-1.91,1.86,1.86,0,0,1,1.89-1.89l.76.1q-1.55-6.39-2.86-12.83l-.59-.34a1.88,1.88,0,0,1-.11-3.22q-.78-4.09-1.43-8.2a83.94,83.94,0,0,1-13,4.55l-.86,1.5a1.86,1.86,0,0,1,1.3.25l5,2.86a1.88,1.88,0,0,1-1.88,3.26l-5-2.86a1.86,1.86,0,0,1-.87-1l-4,7,1.47.56c2.32.88,1.42,4.55-.91,3.66l-2.45-.93-8,13.93,2.08.22c2.46.27,2.55,4.07.08,3.8l-4.21-.46-11.61,20.18,4.1-.1a1.9,1.9,0,0,1,.08,3.8l-5.86.15a2.14,2.14,0,0,1-.5,0l-4.79,8.33,3.23-.27c2.48-.2,2.53,3.6.08,3.8l-5.61.46-.84,1.45,8.91,5.13a9.29,9.29,0,0,0,1.18-.49,2,2,0,0,1,2.67,2.71l6.39,3.67a7,7,0,0,1,4-2,2,2,0,0,1,2.39,1.37,1.85,1.85,0,0,1-1.33,2.31A4.26,4.26,0,0,0,128,989l8.15,4.69A1.86,1.86,0,0,1,136.65,992.34Zm13.28-70.65a1.9,1.9,0,0,1,2.33-1.33l3.23,1a2,2,0,0,1,1.42,2.33,1.9,1.9,0,0,1-2.33,1.33l-3.23-1A2,2,0,0,1,149.93,921.69Zm12.25,16.92c2.28,1,.38,4.29-1.88,3.26l-9-4.1c-2.28-1-.38-4.29,1.88-3.26Zm-21.77-7.08a1.91,1.91,0,0,1,2.33-1.33l2.53.52a2,2,0,0,1,1.42,2.33,1.91,1.91,0,0,1-2.33,1.33l-2.53-.52A2,2,0,0,1,140.42,931.52Zm2.68,11.28c-2-1.56.77-4.18,2.71-2.63a13.92,13.92,0,0,0,5.83,2.7c2.45.54,1.51,4.2-.91,3.66A18.33,18.33,0,0,1,143.1,942.8Zm12,13.45a1.93,1.93,0,0,1-2.33,1.33,11.55,11.55,0,0,0-6,.62,2,2,0,0,1-2.39-1.37,1.89,1.89,0,0,1,1.33-2.31,15.33,15.33,0,0,1,7.94-.6A2,2,0,0,1,155.13,956.25Zm-28.62-8.33a1.9,1.9,0,0,1,1.89-1.89l7-.58a2,2,0,0,1,2,1.91,1.9,1.9,0,0,1-1.89,1.89l-7,.58A2,2,0,0,1,126.52,947.92Zm2.88,9.43a1.94,1.94,0,0,1,2.33-1.33l4.35.65A2,2,0,0,1,137.5,959a1.94,1.94,0,0,1-2.33,1.33l-4.35-.65A2,2,0,0,1,129.39,957.35Zm12.58,11,5.85-.31c2.49-.13,2.55,3.67.08,3.8l-5.85.31C139.56,972.32,139.51,968.52,142,968.39Zm-19.23-.45a1.87,1.87,0,0,1,.55-1.36,2.08,2.08,0,0,1,1.34-.53l2.9-.33c1.07-.12,1.91,1,2,1.91a1.87,1.87,0,0,1-.55,1.36,2.08,2.08,0,0,1-1.34.53l-2.9.33C123.64,970,122.8,968.86,122.74,967.93Zm15,10.35,6.64-1.67c2.39-.6,3.45,3.08,1.06,3.68L138.82,982C136.43,982.57,135.37,978.89,137.76,978.29Zm-13.66.71a1.86,1.86,0,0,1,1.33-2.31l3.32-.84a2,2,0,0,1,2.39,1.37,1.86,1.86,0,0,1-1.33,2.31l-3.32.84A2,2,0,0,1,124.11,979Z" transform="translate(-105.25 -649.35)" />
            <path class="cls-1" d="M433.41,963.26q-1.65,1.54-3.41,3c2.08,6.33,4.33,12.6,6.87,18.76l10.28-17.86q-1.42-8.18-2.74-16.39A99.07,99.07,0,0,1,433.41,963.26Z" transform="translate(-105.25 -649.35)" />
            <path class="cls-1" d="M361.87,1099.85c-.32-6.57,1.78-13,2.13-19.5a60.22,60.22,0,0,0-1.4-14.62,2.06,2.06,0,0,1-.2,1.05c-1.16,2.5-5.16.61-4-1.89.92-2,3.62-1.2,4.12.45-.86-4.38-1.87-8.75-2.5-13.15l-.16.07a2.26,2.26,0,0,1-1.68-.1,2.3,2.3,0,0,1-1.15-1.23,2.18,2.18,0,0,1,.05-1.65l.32-.68a2.17,2.17,0,0,1,1.22-1.1,1.89,1.89,0,0,1,.89-.11v-.06c-8.67.58-17.54.67-25.21,3.08a2,2,0,0,1,1,2.74c-1.12,2.4-4.84.75-4.11-1.59a26.5,26.5,0,0,0-7.56,4.77c-5,4.53-7.74,10.91-10.65,17q-4.14,8.63-9,16.87l54.41,31.31,6.12-10.64A33.18,33.18,0,0,1,361.87,1099.85Zm-14.3-46.72c1.16-2.5,5.16-.61,4,1.89S346.41,1055.62,347.57,1053.12Zm10.81,42.58c-1.16,2.5-5.16.61-4-1.89S359.55,1093.21,358.39,1095.71Zm-12.4-25c-1.16,2.5-5.16.61-4-1.89S347.15,1068.2,346,1070.7Zm-17-7.18c1.16-2.5,5.16-.61,4,1.89S327.84,1066,329,1063.52Zm29.92,20c-1.16,2.5-5.16.61-4-1.89S360.09,1081,358.93,1083.47ZM320.53,1063l.39.18a2.14,2.14,0,0,1-1.8,3.88l-.39-.18A2.14,2.14,0,0,1,320.53,1063Zm22.62,23c-1.16,2.5-5.16.61-4-1.89S344.31,1083.53,343.15,1086Zm-16.85-9.62a2.31,2.31,0,0,1,1.68.1l.7.33a2.35,2.35,0,0,1,1.15,1.23,2.09,2.09,0,0,1-1.28,2.74,2.31,2.31,0,0,1-1.68-.1l-.7-.33a2.35,2.35,0,0,1-1.15-1.23,2.09,2.09,0,0,1,1.28-2.74Zm-12-1.51c1.16-2.5,5.16-.61,4,1.89S313.11,1077.39,314.27,1074.89Zm13.42,24.66c1.16-2.5,5.16-.61,4,1.89S326.53,1102,327.69,1099.55Zm31.13,15.52c-1.16,2.5-5.16.61-4-1.89S360,1112.58,358.82,1115.07Zm-47.36-27.35c-1.16,2.5-5.16.61-4-1.89S312.62,1085.23,311.46,1087.73Zm12,.66.17-.38c1.16-2.5,5.16-.61,4,1.89l-.17.38C326.28,1092.77,322.29,1090.88,323.45,1088.38Zm18.37,10.33c1.16-2.5,5.16-.61,4,1.89S340.65,1101.21,341.82,1098.72Z" transform="translate(-105.25 -649.35)" />
            <path class="cls-1" d="M430.55,992.93A108,108,0,0,1,417,974.45a58.29,58.29,0,0,1-1,9.3c-.3,1.5-.68,3-1.12,4.44,2.51,3.32,5.16,6.53,8,9.59C425.32,996.07,427.88,994.41,430.55,992.93Z" transform="translate(-105.25 -649.35)" />
            <path class="cls-1" d="M336.81,834.49q3.81-3,7.8-5.85-.1-1.79-.27-3.58C341.75,828.15,339.2,831.27,336.81,834.49Z" transform="translate(-105.25 -649.35)" />
            <path class="cls-1" d="M414.62,1003.38q-2.14-1.87-4.22-3.81l-.56,1.23q-1.28,2.77-2.63,5.51l1.15.89C410.5,1006,412.57,1004.74,414.62,1003.38Z" transform="translate(-105.25 -649.35)" />
            <path class="cls-5" d="M119.54,962a1.9,1.9,0,0,0-.08-3.8l-4.1.1-2.18,3.8a2.14,2.14,0,0,0,.5,0Z" transform="translate(-105.25 -649.35)" />
            <path class="cls-5" d="M127.61,969.51a2.08,2.08,0,0,0,1.34-.53,1.87,1.87,0,0,0,.55-1.36c-.06-.92-.9-2-2-1.91l-2.9.33a2.08,2.08,0,0,0-1.34.53,1.87,1.87,0,0,0-.55,1.36c.06.92.9,2,2,1.91Z" transform="translate(-105.25 -649.35)" />
            <path class="cls-5" d="M135.16,960.34A1.94,1.94,0,0,0,137.5,959a2,2,0,0,0-1.42-2.33l-4.35-.65a1.94,1.94,0,0,0-2.33,1.33,2,2,0,0,0,1.42,2.33Z" transform="translate(-105.25 -649.35)" />
            <path class="cls-5" d="M135.44,949.26a1.9,1.9,0,0,0,1.89-1.89,2,2,0,0,0-2-1.91l-7,.58a1.9,1.9,0,0,0-1.89,1.89,2,2,0,0,0,2,1.91Z" transform="translate(-105.25 -649.35)" />
            <path class="cls-5" d="M131.1,934.74l-2.08-.22L127,938.09l4.21.46C133.65,938.81,133.56,935,131.1,934.74Z" transform="translate(-105.25 -649.35)" />
            <path class="cls-5" d="M151.33,937.77l9,4.1c2.26,1,4.16-2.22,1.88-3.26l-9-4.1C150.95,933.48,149,936.73,151.33,937.77Z" transform="translate(-105.25 -649.35)" />
            <path class="cls-5" d="M154.59,925a1.9,1.9,0,0,0,2.33-1.33,2,2,0,0,0-1.42-2.33l-3.23-1a1.9,1.9,0,0,0-2.33,1.33,2,2,0,0,0,1.42,2.33Z" transform="translate(-105.25 -649.35)" />
            <path class="cls-5" d="M159.78,913.18l.59.34q-.36-1.78-.7-3.56A1.88,1.88,0,0,0,159.78,913.18Z" transform="translate(-105.25 -649.35)" />
            <path class="cls-5" d="M144.37,934.38a1.91,1.91,0,0,0,2.33-1.33,2,2,0,0,0-1.42-2.33l-2.53-.52a1.91,1.91,0,0,0-2.33,1.33,2,2,0,0,0,1.42,2.33Z" transform="translate(-105.25 -649.35)" />
            <path class="cls-5" d="M140.4,917.85l-1.47-.56L137,920.59l2.45.93C141.82,922.4,142.72,918.73,140.4,917.85Z" transform="translate(-105.25 -649.35)" />
            <path class="cls-5" d="M148.8,914.18a1.88,1.88,0,0,0,1.88-3.26l-5-2.86a1.86,1.86,0,0,0-1.3-.25L143,910.31a1.86,1.86,0,0,0,.87,1Z" transform="translate(-105.25 -649.35)" />
            <path class="cls-5" d="M145.77,954.52a1.89,1.89,0,0,0-1.33,2.31,2,2,0,0,0,2.39,1.37,11.55,11.55,0,0,1,6-.62,1.93,1.93,0,0,0,2.33-1.33,2,2,0,0,0-1.42-2.33A15.33,15.33,0,0,0,145.77,954.52Z" transform="translate(-105.25 -649.35)" />
            <path class="cls-5" d="M151.64,942.87a13.92,13.92,0,0,1-5.83-2.7c-1.94-1.55-4.66,1.07-2.71,2.63a18.33,18.33,0,0,0,7.62,3.73C153.15,947.06,154.09,943.4,151.64,942.87Z" transform="translate(-105.25 -649.35)" />
            <path class="cls-5" d="M163.81,957.09c-2.16,1.16-.19,4.48,2,3.32l.59-.32q2-2.55,4-5l-.31-1.35Z" transform="translate(-105.25 -649.35)" />
            <path class="cls-5" d="M138.82,982l6.64-1.67c2.39-.6,1.34-4.29-1.06-3.68l-6.64,1.67C135.37,978.89,136.43,982.57,138.82,982Z" transform="translate(-105.25 -649.35)" />
            <path class="cls-5" d="M147.9,971.88c2.46-.13,2.41-3.93-.08-3.8l-5.85.31c-2.46.13-2.41,3.93.08,3.8Z" transform="translate(-105.25 -649.35)" />
            <path class="cls-5" d="M162.49,926.25a1.86,1.86,0,0,0-1.89,1.89,2,2,0,0,0,2,1.91l1.65.21q-.49-2-1-3.91Z" transform="translate(-105.25 -649.35)" />
            <path class="cls-5" d="M166.86,947.33l-6.24,1a1.85,1.85,0,0,0-1.33,2.31,2,2,0,0,0,2.39,1.37l6.24-1a1.67,1.67,0,0,0,1.27-1.14l-.49-2A2.22,2.22,0,0,0,166.86,947.33Z" transform="translate(-105.25 -649.35)" />
            <path class="cls-5" d="M115.34,980.47a9.29,9.29,0,0,1-1.18.49l3.86,2.22A2,2,0,0,0,115.34,980.47Z" transform="translate(-105.25 -649.35)" />
            <path class="cls-5" d="M111.61,970.13l-3.23.27-2.3,4,5.61-.46C114.14,973.72,114.09,969.92,111.61,970.13Z" transform="translate(-105.25 -649.35)" />
            <path class="cls-5" d="M129.42,988.54a1.85,1.85,0,0,0,1.33-2.31,2,2,0,0,0-2.39-1.37,7,7,0,0,0-4,2L128,989A4.26,4.26,0,0,1,129.42,988.54Z" transform="translate(-105.25 -649.35)" />
            <path class="cls-5" d="M129.81,979.53a1.86,1.86,0,0,0,1.33-2.31,2,2,0,0,0-2.39-1.37l-3.32.84a1.86,1.86,0,0,0-1.33,2.31,2,2,0,0,0,2.39,1.37Z" transform="translate(-105.25 -649.35)" />
            <path class="cls-5" d="M143.91,991.49c.79-1,1.55-2,2.27-2.93a1.63,1.63,0,0,0-2.25-1.23,17.47,17.47,0,0,0-7.27,5,1.86,1.86,0,0,0-.46,1.31l2.95,1.7a2,2,0,0,0,.27-.26A14.06,14.06,0,0,1,143.91,991.49Z" transform="translate(-105.25 -649.35)" />
            <path class="cls-5" d="M159.91,966.83l-5.16.51a1.91,1.91,0,0,0-1.89,1.89,2,2,0,0,0,2,1.91l3.68-.37q1.27-1.8,2.55-3.58A1.6,1.6,0,0,0,159.91,966.83Z" transform="translate(-105.25 -649.35)" />
            <path class="cls-6" d="M358.93,1083.47c1.16-2.5-2.83-4.39-4-1.89S357.77,1086,358.93,1083.47Z" transform="translate(-105.25 -649.35)" />
            <path class="cls-6" d="M335.27,1053.15a2,2,0,0,0-1-2.74c-1.07.33-2.11.71-3.13,1.15C330.43,1053.9,334.15,1055.55,335.27,1053.15Z" transform="translate(-105.25 -649.35)" />
            <path class="cls-6" d="M359.51,1047.4a1.89,1.89,0,0,0-.89.11,2.17,2.17,0,0,0-1.22,1.1l-.32.68a2.18,2.18,0,0,0-.05,1.65,2.3,2.3,0,0,0,1.15,1.23,2.26,2.26,0,0,0,1.68.1l.16-.07c-.12-.86-.24-1.72-.33-2.58S359.56,1048.12,359.51,1047.4Z" transform="translate(-105.25 -649.35)" />
            <path class="cls-6" d="M342,1068.81c-1.16,2.5,2.83,4.39,4,1.89S343.15,1066.31,342,1068.81Z" transform="translate(-105.25 -649.35)" />
            <path class="cls-6" d="M319.12,1067a2.14,2.14,0,0,0,1.8-3.88l-.39-.18a2.14,2.14,0,0,0-1.8,3.88Z" transform="translate(-105.25 -649.35)" />
            <path class="cls-6" d="M327.44,1090.27l.17-.38c1.16-2.5-2.83-4.39-4-1.89l-.17.38C322.29,1090.88,326.28,1092.77,327.44,1090.27Z" transform="translate(-105.25 -649.35)" />
            <path class="cls-6" d="M333,1065.41c1.16-2.5-2.83-4.39-4-1.89S331.84,1067.91,333,1065.41Z" transform="translate(-105.25 -649.35)" />
            <path class="cls-6" d="M339.16,1084.14c-1.16,2.5,2.83,4.39,4,1.89S340.32,1081.64,339.16,1084.14Z" transform="translate(-105.25 -649.35)" />
            <path class="cls-6" d="M354.83,1113.19c-1.16,2.5,2.83,4.39,4,1.89S356,1110.69,354.83,1113.19Z" transform="translate(-105.25 -649.35)" />
            <path class="cls-6" d="M341.82,1098.72c-1.16,2.5,2.83,4.39,4,1.89S343,1096.22,341.82,1098.72Z" transform="translate(-105.25 -649.35)" />
            <path class="cls-6" d="M354.39,1093.82c-1.16,2.5,2.83,4.39,4,1.89S355.55,1091.32,354.39,1093.82Z" transform="translate(-105.25 -649.35)" />
            <path class="cls-6" d="M318.27,1076.78c1.16-2.5-2.83-4.39-4-1.89S317.11,1079.28,318.27,1076.78Z" transform="translate(-105.25 -649.35)" />
            <path class="cls-6" d="M351.57,1055c1.16-2.5-2.83-4.39-4-1.89S350.41,1057.51,351.57,1055Z" transform="translate(-105.25 -649.35)" />
            <path class="cls-6" d="M325,1079.14a2.35,2.35,0,0,0,1.15,1.23l.7.33a2.31,2.31,0,0,0,1.68.1,2.09,2.09,0,0,0,1.28-2.74,2.35,2.35,0,0,0-1.15-1.23l-.7-.33a2.31,2.31,0,0,0-1.68-.1,2.09,2.09,0,0,0-1.28,2.74Z" transform="translate(-105.25 -649.35)" />
            <path class="cls-6" d="M358.4,1064.9c-1.16,2.5,2.83,4.39,4,1.89a2.06,2.06,0,0,0,.2-1.05l-.07-.39C362,1063.69,359.33,1062.92,358.4,1064.9Z" transform="translate(-105.25 -649.35)" />
            <path class="cls-6" d="M307.47,1085.84c-1.16,2.5,2.83,4.39,4,1.89S308.63,1083.34,307.47,1085.84Z" transform="translate(-105.25 -649.35)" />
            <path class="cls-6" d="M331.69,1101.44c1.16-2.5-2.83-4.39-4-1.89S330.53,1103.94,331.69,1101.44Z" transform="translate(-105.25 -649.35)" />
            <path class="cls-7" d="M382.46,731.57c2.17,9.09,4.73,18.38,3.52,27.54-1.16,8.75-5.67,16.59-10.38,24a343.11,343.11,0,0,1-25.23,34.72c-2,2.41-4,4.81-6,7.22q.17,1.79.27,3.58,3.31-2.34,6.74-4.52c9.45-6,23.13-10.63,31.4-2.94,5.15-8.08,12.06-14,18.75-20.2-1.56-1.18-1.79-4,.61-4.78a2.6,2.6,0,0,1,3.11,1.22,77.31,77.31,0,0,0,7.81-8.83c11.11-14.94,15.31-35.4,32.27-45.58a40.16,40.16,0,0,1,5.7-2.82l-6-3.44a2.43,2.43,0,0,1-1.72,3c-3.29,1-5-4-1.91-5.1l-57.56-33.12c-1.95,2.78-3.85,5.47-5.84,8Q379.86,720.62,382.46,731.57Zm6.22,71.94c-3.35,1-5.1-4.14-1.76-5.16S392,802.49,388.69,803.51Zm27.65-26.87a2.33,2.33,0,0,1,.41,1,2.85,2.85,0,0,1,.28,1,2.69,2.69,0,0,1-.67,1.9,2.94,2.94,0,0,1-3.53.62,3.34,3.34,0,0,1-1.58-1.87,3.12,3.12,0,0,1,.13-2.39,2.92,2.92,0,0,1,5-.27Zm8.23-18.73c-3.35,1-5.1-4.14-1.76-5.16S427.91,756.89,424.56,757.91Z" transform="translate(-105.25 -649.35)" />
            <polygon class="cls-7" points="308.88 131.42 308.89 131.42 308.87 131.42 308.88 131.42" />
            <path class="cls-7" d="M433.41,963.26a99.07,99.07,0,0,0,11-12.53q-.52-3.18-1-6.36a62.37,62.37,0,0,1-18.48-.45l-1.82-.35c2.21,7.59,4.44,15.17,6.91,22.66Q431.76,964.8,433.41,963.26Z" transform="translate(-105.25 -649.35)" />
            <path class="cls-8" d="M249.46,842.25c-3.94-10.3-3-21.47-.07-32-9.34,2.08-18.66,4.66-28.75,6.52q-1.31.24-2.61.43a14.28,14.28,0,0,1,.69,5.72c-.63,8.16-6.11,14.38-11.58,20.72.46.71.93,1.41,1.42,2.1,3.48,5,8.34,9.68,14.36,10.28-7.41-.78-15.14-1.89-22.2-4.31a37.84,37.84,0,0,0-2.05,3.35c-3.54,6.58-4.67,14.25-8.08,20.89-4.73,9.19-17.77,19.4-32.34,25.83q.65,4.11,1.43,8.2.34,1.78.7,3.56,1.31,6.44,2.86,12.83.48,2,1,3.91.8,3.17,1.64,6.32c1,3.75,1.94,7.5,2.84,11.25l.49,2q.46,1.92.9,3.84l.31,1.35c3.11-3.76,6.37-7.4,9.86-10.84A126.1,126.1,0,0,1,230.39,914c12.42-4,25.6-6.1,37.18-11.94a67.88,67.88,0,0,0,8.5-5.13c-6.34-9.15-8.67-21.66-13.85-32C258.33,857.17,252.54,850.33,249.46,842.25Z" transform="translate(-105.25 -649.35)" />
            <path class="cls-8" d="M254.43,796.38c5.09-11.77,11.38-23.1,14.5-35.55l0-.09c-21.51,1.47-31.28,24.28-53.86,25.92l-1,.06-6,10.4c6.7.25,13.42.71,20.11.74C237.28,797.91,245.41,795.82,254.43,796.38Z" transform="translate(-105.25 -649.35)" />
            <path class="cls-8" d="M269,760.63c3.64-14.66,3.06-29.78,7.34-44.29.39-1.33.83-2.63,1.32-3.91-4-5.93-7-12.35-10-18.84l-42.52,73.89c7.16-2.22,14.09-5.15,21.28-7.19C255.37,757.76,261,760.28,269,760.63Z" transform="translate(-105.25 -649.35)" />
            <path class="cls-8" d="M413,788.59a77.31,77.31,0,0,1-7.81,8.83,2.61,2.61,0,0,1-3.72,3.56c-6.68,6.23-13.6,12.11-18.75,20.2.16.15.32.29.47.44,3.38,3.42,4.73,8.23,6.85,12.51s5.88,8.55,10.67,8.57c3.24,0,6-1.93,8.79-3.54.48-.28,1-.56,1.47-.82a2.37,2.37,0,0,1,1.75-1.85,2.62,2.62,0,0,1,1.86.08,49.92,49.92,0,0,1,10-3.2,12.77,12.77,0,0,1,6.27-.1c3.87,1.18,6.16,5.41,6.32,9.37s-1.33,7.73-2.71,11.4a277.69,277.69,0,0,0-16.59,72c1.79,5.83,3.48,11.68,5.19,17.54l1.82.35a62.37,62.37,0,0,0,18.48.45q-1.74-11-3.36-21.89c-2.41-16.21-.61-32.54,4.06-48,2.23-7.4,5.44-14.44,8.25-21.59,3.19-8.11,5.87-16.36,6-25.39,1.4,5,2.55,10.37,1.34,15.39-1,4.3-2.12,7.5-2,11.92.1,5,0,10.31-.37,15.34,0,.49-.06,1-.09,1.48a2.73,2.73,0,0,1-.21,4c-.48,12.58.56,24.52,2.32,37.33a167.37,167.37,0,0,1,1.27,26.92q1.53-.63,3-1.33l21-36.42c-3.12-5.91-3.86-13.17-2.89-19.78,1.35-9.12,3.56-18.59,5.06-28.15-2.92.24-4.24-4.33-1.12-5.28a2.62,2.62,0,0,1,1.85.08,101.58,101.58,0,0,0,.84-13,56.39,56.39,0,0,0-3.07-16.46,2.93,2.93,0,0,1-1.33-4.06c-3.42-10.1-7.35-20.09-5.84-30.12a24.42,24.42,0,0,1,.64-2.95l-.47.14a2.91,2.91,0,0,1-2.09-.2,2.85,2.85,0,0,1-1.38-1.59,2.61,2.61,0,0,1,1.72-3.37l.88-.27a2.91,2.91,0,0,1,2.09.2,2.45,2.45,0,0,1,.89.72c2.47-5.29,6.4-10,10.21-14.68a2.69,2.69,0,0,1-.24-.49L451,740.2a40.16,40.16,0,0,0-5.7,2.82C428.34,753.19,424.13,773.66,413,788.59Zm-10,47.89c-3.35,1-5.1-4.14-1.75-5.16S406.42,835.46,403.08,836.48Zm-11.77-17.54c-3.35,1-5.1-4.14-1.75-5.16S394.65,817.92,391.31,818.94Zm50.22,56.75a2.61,2.61,0,0,1-1.72,3.37l-.88.27a2.91,2.91,0,0,1-2.09-.2,2.85,2.85,0,0,1-1.38-1.59,2.61,2.61,0,0,1,1.72-3.37l.88-.27a2.91,2.91,0,0,1,2.09.2A2.85,2.85,0,0,1,441.53,875.69Zm11-30.26c-3.35,1-5.1-4.14-1.76-5.16S455.88,844.42,452.54,845.44ZM431.43,831.7c-3.35,1-5.1-4.14-1.75-5.16S434.77,830.68,431.43,831.7ZM407.09,817c-3.35,1-5.1-4.14-1.75-5.16S410.43,816,407.09,817Zm22.31,1.58-.24.47c-1.57,3.07-6.48.54-4.91-2.53l.24-.47C426.05,813,431,815.54,429.4,818.61Zm40.07,33c-3.35,1-5.1-4.14-1.76-5.16S472.81,850.61,469.46,851.63Zm-50.12-52.69-.3-.87a2.74,2.74,0,0,1,.14-2.05,2.65,2.65,0,0,1,1.58-1.31,2.85,2.85,0,0,1,2.09.2,2.91,2.91,0,0,1,1.38,1.59l.3.87a2.74,2.74,0,0,1-.14,2.05,2.65,2.65,0,0,1-1.58,1.31,2.85,2.85,0,0,1-2.09-.2A2.91,2.91,0,0,1,419.34,798.93ZM472,833.66c-3.35,1-5.1-4.14-1.76-5.16S475.37,832.64,472,833.66Zm-15.5-16.31c-3.35,1-5.1-4.14-1.75-5.16S459.86,816.34,456.52,817.35Zm-18.2-16.54c-3.35,1-5.1-4.14-1.76-5.16S441.66,799.79,438.32,800.81Zm11.79-53.43.48-.15c3.35-1,5.1,4.14,1.76,5.16l-.48.15C448.52,753.55,446.77,748.4,450.11,747.38Zm-17.73,21.67-.16-.48c-1.13-3.32,4.07-4.9,5.2-1.58l.16.48C438.71,770.8,433.51,772.37,432.38,769.05Zm3.53,16.17c-3.35,1-5.1-4.14-1.76-5.16S439.26,784.21,435.92,785.22Zm32.77,8.31.3.87a2.74,2.74,0,0,1-.14,2.05,2.65,2.65,0,0,1-1.58,1.31,2.85,2.85,0,0,1-2.09-.2,2.91,2.91,0,0,1-1.38-1.59l-.3-.87a2.74,2.74,0,0,1,.14-2.05,2.65,2.65,0,0,1,1.58-1.31,2.85,2.85,0,0,1,2.09.2A2.91,2.91,0,0,1,468.68,793.53Zm-18.44-13-.65-.33c-3.17-1.63-.73-6.39,2.43-4.76l.64.33C455.84,777.43,453.41,782.19,450.24,780.56Zm15.15-11c-3.35,1-5.1-4.14-1.76-5.16S468.73,768.53,465.39,769.54Z" transform="translate(-105.25 -649.35)" />
            <path class="cls-9" d="M312.95,1073.3c2.9-6.06,5.66-12.43,10.65-17a26.5,26.5,0,0,1,7.56-4.77c1-.43,2.06-.81,3.13-1.15,7.68-2.41,16.55-2.5,25.21-3.08-1.54-25.27,17.94-28.49,36.87-35.05a103.45,103.45,0,0,1-11.48-5.65c-14.89-8.5-27.63-20.18-38.77-33A246.58,246.58,0,0,1,330.24,953c-7.93-11.38-14.69-21-27.57-27.48,3,1.53,7.63,1.33,11,2.77,3,1.27,5.79,2.24,8.78,3.35,8.54,3.17,17.06,8.42,24.79,13.22a119.26,119.26,0,0,1,24.92,20c8,8.59,14.23,18.45,21.51,27.55a86.71,86.71,0,0,0,13.55,13.9q1.34-2.74,2.63-5.51l.56-1.23q-4.5-4.2-8.7-8.72c-15.43-16.63-26.8-35.74-35.17-56.53-6.2-15.41-11.42-34.18-20.93-49.06a2.86,2.86,0,0,1-2.71-4,61.59,61.59,0,0,0-5.83-6.9,42.92,42.92,0,0,0-10.79-7.94c16-1.33,30.17,20.14,37.79,31.5,13,19.44,22.11,41,33,61.57a211.91,211.91,0,0,0,17.77,28.65c.44-1.46.81-2.94,1.12-4.44a58.29,58.29,0,0,0,1-9.3l-.06-.1c-11-18.85-16.85-39.86-22.38-60.64-2.8-10.52-5.55-21.06-8.93-31.43-2.84-8.71-5.68-20.48-12-28.58a2.6,2.6,0,0,1-1.2.74c-3,.92-4.74-3.2-2.59-4.75a21.81,21.81,0,0,0-4.79-3.15c2.31,1.1,4.57,1.72,6.78,2.63a2.5,2.5,0,0,1,1.33.6,16.69,16.69,0,0,1,3,1.83c2.79,2.17,5.28,4.85,7.94,7.18.57.5,1.12,1,1.66,1.56a2.66,2.66,0,0,1,1.06-.6c3-.91,4.72,3.14,2.63,4.72A98.73,98.73,0,0,1,397.7,877c2.67-.52,4.18,2.93,2.56,4.57,7.68,14.16,13,29.18,17.65,44.42a277.69,277.69,0,0,1,16.59-72c1.39-3.67,2.87-7.44,2.71-11.4s-2.45-8.19-6.32-9.37a12.77,12.77,0,0,0-6.27.1,49.92,49.92,0,0,0-10,3.2c2,.89,2.53,4.27-.11,5.07a2.81,2.81,0,0,1-3.5-3.31c-.49.27-1,.54-1.47.82-2.75,1.61-5.55,3.56-8.79,3.54-4.79,0-8.54-4.29-10.67-8.57s-3.47-9.08-6.85-12.51c-.15-.16-.31-.3-.47-.44-8.27-7.69-21.95-3.07-31.4,2.94q-3.43,2.18-6.74,4.52-4,2.81-7.8,5.85c-1.81,2.43-3.52,4.91-5.09,7.48a68.92,68.92,0,0,0-4.14,7.8c-4.55,10.17-6.2,21.41-9.66,32-4.61,14.15-16.16,34.15-33.77,23a28.05,28.05,0,0,1-8.08-7.91,67.88,67.88,0,0,1-8.5,5.13c-11.58,5.85-24.76,8-37.18,11.94a126.1,126.1,0,0,0-50.13,30.25c-3.49,3.45-6.75,7.08-9.86,10.84q-2.06,2.48-4,5-2.72,3.51-5.31,7.11-1.29,1.78-2.55,3.58c-3.56,5-7,10.16-10.49,15.23-.57.84-1.19,1.69-1.84,2.55s-1.48,1.93-2.27,2.93c-1.17,1.48-2.39,3-3.6,4.52l52.39,30.14c0-1.1,0-2.06,0-2.83-.08-5.39-.11-11,2.29-15.77,3.47-6.89,9.93-5,14.68-8.87,4.42-3.58,7.12-10.88,11.61-15,21.19-19.53,40.25-1.72,47.9,22.36,4.52,14.21,5.1,29.22,8.52,43.7,1.84,7.78,4.52,15.59,3.91,23.48a30.36,30.36,0,0,1-.54,3.82l22.84,13.14Q308.8,1081.93,312.95,1073.3Zm36-208.53a2.61,2.61,0,0,1-1.72,3.37l-.88.27a2.91,2.91,0,0,1-2.09-.2,2.85,2.85,0,0,1-1.38-1.59,2.61,2.61,0,0,1,1.72-3.37l.88-.27a2.91,2.91,0,0,1,2.09.2A2.85,2.85,0,0,1,349,864.77Zm19,32.83c-3.35,1-5.1-4.14-1.75-5.16S371.31,896.58,368,897.6Zm19.25.37.3.87a2.74,2.74,0,0,1-.14,2.05,2.65,2.65,0,0,1-1.58,1.31,2.85,2.85,0,0,1-2.09-.2,2.91,2.91,0,0,1-1.38-1.59l-.3-.87a2.74,2.74,0,0,1,.14-2.05,2.65,2.65,0,0,1,1.58-1.31,2.85,2.85,0,0,1,2.09.2A2.91,2.91,0,0,1,387.22,898Zm-12.61-14.44c-3.35,1-5.1-4.14-1.75-5.16S377.95,882.51,374.61,883.53ZM361.09,869.4c-3.35,1-5.1-4.14-1.76-5.16S364.44,868.38,361.09,869.4ZM359,854.68c-3.35,1-5.1-4.14-1.76-5.16S362.33,853.67,359,854.68Zm16.69-16.47c3.35-1,5.1,4.14,1.76,5.16S372.33,839.23,375.67,838.21Zm38.68,37.08c-3.35,1-5.1-4.14-1.76-5.16S417.69,874.27,414.35,875.29Zm-11.18-15.8c-3.35,1-5.1-4.14-1.75-5.16S406.51,858.47,403.17,859.49ZM390.55,848c-3.35,1-5.1-4.14-1.75-5.16S393.89,847,390.55,848Zm38.63-.16c3.35-1,5.1,4.14,1.76,5.16S425.83,848.83,429.17,847.81Zm-14.89,1.61a2.61,2.61,0,0,1,1.72-3.37l.88-.27a2.91,2.91,0,0,1,2.09.2,2.85,2.85,0,0,1,1.38,1.59,2.61,2.61,0,0,1-1.72,3.37l-.88.27a2.91,2.91,0,0,1-2.09-.2A2.85,2.85,0,0,1,414.28,849.42Zm12.58,5.81c3.35-1,5.1,4.14,1.76,5.16S423.52,856.25,426.86,855.23ZM377.28,822c3.35-1,5.1,4.14,1.76,5.16S373.93,823,377.28,822ZM331,855c3.35-1,5.1,4.14,1.76,5.16S327.65,856,331,855Zm13.81,42.05.3.87A2.74,2.74,0,0,1,345,900a2.65,2.65,0,0,1-1.58,1.31,2.85,2.85,0,0,1-2.09-.2,2.91,2.91,0,0,1-1.38-1.59l-.3-.87a2.74,2.74,0,0,1,.14-2.05,2.65,2.65,0,0,1,1.58-1.31,2.85,2.85,0,0,1,2.09.2A2.91,2.91,0,0,1,344.81,897.07Zm-20-14.21.48-.15c3.35-1,5.1,4.14,1.75,5.16l-.48.15C323.21,889,321.46,883.88,324.8,882.86Z" transform="translate(-105.25 -649.35)" />
            <path class="cls-6" d="M490.56,763.31c-3.81,4.69-7.74,9.39-10.21,14.68a3.42,3.42,0,0,1,.49.87,2.61,2.61,0,0,1-1.72,3.37l-.41.12a24.42,24.42,0,0,0-.64,2.95c-1.51,10,2.42,20,5.84,30.12a2.48,2.48,0,0,1,1.42-1c3.35-1,5.1,4.14,1.76,5.16a2.62,2.62,0,0,1-1.84-.07,56.39,56.39,0,0,1,3.07,16.46,101.58,101.58,0,0,1-.84,13c2,.88,2.55,4.28-.1,5.08a3,3,0,0,1-.64.12c-1.5,9.56-3.72,19-5.06,28.15-1,6.61-.24,13.88,2.89,19.78l37.33-64.87a2.43,2.43,0,0,1,1.71-3l22.21-38.61a3.1,3.1,0,0,1-.8-1.35l-24.44-14.06a2.37,2.37,0,0,1-1.79,2.18c-3,.91-4.72-3.14-2.63-4.72l-22.72-13.07a3,3,0,0,1-1.78-.28A2.93,2.93,0,0,1,490.56,763.31Zm10.81,77.84a2.85,2.85,0,0,1-2.09-.2,2.91,2.91,0,0,1-1.38-1.59l-.3-.87a2.74,2.74,0,0,1,.14-2.05,2.65,2.65,0,0,1,1.58-1.31,2.85,2.85,0,0,1,2.09.2,2.91,2.91,0,0,1,1.38,1.59l.3.87a2.74,2.74,0,0,1-.14,2.05A2.65,2.65,0,0,1,501.36,841.15Zm16.54-28a2.72,2.72,0,0,1-.14,2.05l-.58,1.14a2.73,2.73,0,0,1-1.58,1.31,2.82,2.82,0,0,1-2.09-.2,2.87,2.87,0,0,1-1.38-1.59,2.72,2.72,0,0,1,.14-2.05l.58-1.14a2.73,2.73,0,0,1,1.58-1.31,2.82,2.82,0,0,1,2.09.2A2.87,2.87,0,0,1,517.9,813.12Zm-28.17-12c-3.35,1-5.1-4.14-1.76-5.16S493.07,800.1,489.73,801.12Zm16.12-3.53a2.61,2.61,0,0,1-1.72,3.37l-.88.27a2.91,2.91,0,0,1-2.09-.2,2.85,2.85,0,0,1-1.38-1.59,2.61,2.61,0,0,1,1.72-3.37l.88-.27a2.91,2.91,0,0,1,2.09.2A2.85,2.85,0,0,1,505.84,797.59ZM531.19,789c3.35-1,5.1,4.14,1.75,5.16S527.85,790,531.19,789Zm-26.32-14.13.3.87a2.74,2.74,0,0,1-.14,2.05,2.65,2.65,0,0,1-1.58,1.31,2.85,2.85,0,0,1-2.09-.2A2.91,2.91,0,0,1,500,777.3l-.3-.87a2.74,2.74,0,0,1,.14-2.05,2.65,2.65,0,0,1,1.58-1.31,2.85,2.85,0,0,1,2.09.2A2.91,2.91,0,0,1,504.87,774.85Z" transform="translate(-105.25 -649.35)" />
            <path class="cls-6" d="M190.58,875.93c3.42-6.64,4.54-14.31,8.08-20.89a37.84,37.84,0,0,1,2.05-3.35A39.42,39.42,0,0,1,185,842.2c-.6-.61-1.17-1.25-1.73-1.9l-38,66a83.94,83.94,0,0,0,13-4.55C172.8,895.33,185.85,885.13,190.58,875.93Z" transform="translate(-105.25 -649.35)" />
            <path class="cls-6" d="M197.73,831.21c3.95,3.44,6.55,8,9.41,12.41,5.47-6.34,10.95-12.56,11.58-20.72a14.28,14.28,0,0,0-.69-5.72,63.39,63.39,0,0,1-19.74-.18l-1.49-.27-5.88,10.22A27.28,27.28,0,0,1,197.73,831.21Z" transform="translate(-105.25 -649.35)" />
            <path class="cls-10" d="M277.64,712.43c-.48,1.28-.93,2.58-1.32,3.91C272,730.85,272.62,746,269,760.63c.65,0,1.31,0,2,0-.68,0-1.36,0-2,.08l0,.09c-3.13,12.45-9.41,23.78-14.5,35.55,1.3.08,2.62.22,4,.42,4.28.66,8.61,2.59,12.87,4.62,5.36,2.56,10.59,5.28,15.46,5.81-13.56-1.49-25.46.34-37.34,3-3,10.57-3.86,21.74.07,32,3.08,8.07,8.87,14.91,12.77,22.66,5.18,10.31,7.5,22.82,13.85,32a28.05,28.05,0,0,0,8.08,7.91c17.61,11.13,29.16-8.86,33.77-23,3.45-10.6,5.1-21.84,9.66-32a68.92,68.92,0,0,1,4.14-7.8c1.57-2.57,3.29-5.05,5.09-7.48,2.39-3.22,4.94-6.34,7.52-9.43,2-2.41,4-4.81,6-7.22a343.11,343.11,0,0,0,25.23-34.72c4.71-7.41,9.22-15.26,10.38-24,1.22-9.16-1.35-18.46-3.52-27.54q-2.61-10.94-4.49-22-1.06-6.21-1.88-12.45l-58.93-33.91c-4.94,4.45-9.55,9.25-14.14,14.05C293,687.7,282.81,698.76,277.64,712.43Zm32,179a2.74,2.74,0,0,1-.14,2.05,2.65,2.65,0,0,1-1.58,1.31,2.85,2.85,0,0,1-2.09-.2,2.91,2.91,0,0,1-1.38-1.59l-.3-.87a2.74,2.74,0,0,1,.14-2.05,2.65,2.65,0,0,1,1.58-1.31,2.85,2.85,0,0,1,2.09.2,2.91,2.91,0,0,1,1.38,1.59Z" transform="translate(-105.25 -649.35)" />
            <path class="cls-11" d="M422.8,997.78c-2.82-3.06-5.47-6.27-8-9.59a211.91,211.91,0,0,1-17.77-28.65c-10.89-20.56-20-42.13-33-61.57-7.62-11.36-21.81-32.83-37.79-31.5a42.92,42.92,0,0,1,10.79,7.94,61.59,61.59,0,0,1,5.83,6.9,2.42,2.42,0,0,1,1.6-1.32c3.36-1,5.06,4.19,1.7,5.17a3.05,3.05,0,0,1-.59.11c9.51,14.88,14.72,33.64,20.93,49.06,8.36,20.78,19.73,39.9,35.17,56.53q4.19,4.51,8.7,8.72,2.08,1.94,4.22,3.81C417.37,1001.56,420.06,999.64,422.8,997.78Z" transform="translate(-105.25 -649.35)" />
            <path class="cls-11" d="M459.33,912.93c-1.76-12.8-2.8-24.74-2.32-37.33a2.8,2.8,0,0,1-.83.4c-3.35,1-5.1-4.14-1.76-5.16a2.56,2.56,0,0,1,2.79.78c0-.49.06-1,.09-1.48.37-5,.47-10.29.37-15.34-.09-4.42,1-7.62,2-11.92,1.21-5,.05-10.34-1.34-15.39-.16,9-2.84,17.27-6,25.39-2.81,7.14-6,14.19-8.25,21.59-4.67,15.47-6.47,31.79-4.06,48q1.62,10.91,3.36,21.89.5,3.18,1,6.36,1.33,8.2,2.74,16.39L460.46,944q.08-2.07.13-4.14A167.37,167.37,0,0,0,459.33,912.93Z" transform="translate(-105.25 -649.35)" />
            <g class="leaf one">
                <path class="cls-11" d="M408.35,1007.21l-1.15-.89a86.71,86.71,0,0,1-13.55-13.9c-7.29-9.1-13.56-19-21.51-27.55a119.26,119.26,0,0,0-24.92-20c-7.72-4.79-16.24-10-24.79-13.22-3-1.11-5.82-2.07-8.78-3.35-3.35-1.44-7.95-1.25-11-2.77,12.88,6.48,19.64,16.1,27.57,27.48a246.58,246.58,0,0,0,15.89,20.56c11.14,12.86,23.88,24.53,38.77,33a103.45,103.45,0,0,0,11.48,5.65c2.44-.85,4.88-1.75,7.26-2.76C405.25,1008.83,406.82,1008,408.35,1007.21Z" transform="translate(-105.25 -649.35)" />
            </g>
            <path class="cls-4" d="M218,817.17q1.31-.19,2.61-.43c10.09-1.86,19.4-4.44,28.75-6.52,11.87-2.64,23.78-4.47,37.34-3-4.87-.54-10.11-3.26-15.46-5.81-4.26-2-8.59-4-12.87-4.62-1.34-.21-2.66-.34-4-.42-9-.56-17.16,1.53-26.25,1.49-6.68,0-13.4-.49-20.11-.74l-11.28,19.6,1.49.27A63.39,63.39,0,0,0,218,817.17Z" transform="translate(-105.25 -649.35)" />
            <path class="cls-4" d="M269,760.74c.66,0,1.33-.07,2-.08-.68,0-1.34,0-2,0-8-.35-13.61-2.87-22.57-.33-7.19,2-14.12,5-21.28,7.19l-11.07,19.23,1-.06C237.68,785,247.44,762.22,269,760.74Z" transform="translate(-105.25 -649.35)" />
            <path class="cls-4" d="M200.72,851.69c7.06,2.42,14.79,3.53,22.2,4.31-6-.59-10.88-5.32-14.36-10.28-.48-.69-1-1.39-1.42-2.1-2.87-4.37-5.46-9-9.41-12.41a27.28,27.28,0,0,0-6.81-4.26l-7.69,13.36c.56.65,1.13,1.28,1.73,1.9A39.42,39.42,0,0,0,200.72,851.69Z" transform="translate(-105.25 -649.35)" />
            <path class="cls-4" d="M277.72,1049.72c-3.42-14.47-4-29.49-8.52-43.7-7.65-24.08-26.71-41.89-47.9-22.36-4.48,4.13-7.18,11.44-11.61,15-4.75,3.85-11.21,2-14.68,8.87-2.4,4.77-2.37,10.39-2.29,15.77,0,.78,0,1.73,0,2.83L281.09,1077a30.36,30.36,0,0,0,.54-3.82C282.24,1065.31,279.56,1057.49,277.72,1049.72Z" transform="translate(-105.25 -649.35)" />
            <path class="cls-4" d="M361.09,869.4c3.34-1,1.59-6.18-1.76-5.16S357.75,870.42,361.09,869.4Z" transform="translate(-105.25 -649.35)" />
            <path class="cls-4" d="M374.61,883.53c3.34-1,1.59-6.18-1.75-5.16S371.26,884.55,374.61,883.53Z" transform="translate(-105.25 -649.35)" />
            <path class="cls-4" d="M386.81,859.73a2.66,2.66,0,0,0-1.06.6,47.84,47.84,0,0,1,3.69,4.12C391.53,862.87,389.82,858.82,386.81,859.73Z" transform="translate(-105.25 -649.35)" />
            <path class="cls-4" d="M390.55,848c3.34-1,1.59-6.18-1.75-5.16S387.2,849,390.55,848Z" transform="translate(-105.25 -649.35)" />
            <path class="cls-4" d="M371.85,849.16c.45.18.89.38,1.33.6A2.5,2.5,0,0,0,371.85,849.16Z" transform="translate(-105.25 -649.35)" />
            <path class="cls-4" d="M372.44,854.43a2.6,2.6,0,0,0,1.2-.74,27.09,27.09,0,0,0-3.79-4C367.7,851.23,369.42,855.35,372.44,854.43Z" transform="translate(-105.25 -649.35)" />
            <path class="cls-4" d="M377.43,843.37c3.34-1,1.59-6.18-1.76-5.16S374.08,844.38,377.43,843.37Z" transform="translate(-105.25 -649.35)" />
            <path class="cls-4" d="M345.49,863l-.88.27a2.61,2.61,0,0,0-1.72,3.37,2.85,2.85,0,0,0,1.38,1.59,2.91,2.91,0,0,0,2.09.2l.88-.27a2.61,2.61,0,0,0,1.72-3.37,2.85,2.85,0,0,0-1.38-1.59A2.91,2.91,0,0,0,345.49,863Z" transform="translate(-105.25 -649.35)" />
            <path class="cls-4" d="M341.33,895.28a2.65,2.65,0,0,0-1.58,1.31,2.74,2.74,0,0,0-.14,2.05l.3.87a2.91,2.91,0,0,0,1.38,1.59,2.85,2.85,0,0,0,2.09.2A2.65,2.65,0,0,0,345,900a2.74,2.74,0,0,0,.14-2.05l-.3-.87a2.91,2.91,0,0,0-1.38-1.59A2.85,2.85,0,0,0,341.33,895.28Z" transform="translate(-105.25 -649.35)" />
            <path class="cls-4" d="M331,855c-3.34,1-1.59,6.18,1.76,5.16S334.34,854,331,855Z" transform="translate(-105.25 -649.35)" />
            <path class="cls-4" d="M344.48,880a2.42,2.42,0,0,0-1.6,1.32,2.86,2.86,0,0,0,2.71,4,3.05,3.05,0,0,0,.59-.11C349.54,884.18,347.84,879,344.48,880Z" transform="translate(-105.25 -649.35)" />
            <path class="cls-4" d="M357.23,849.52c-3.34,1-1.59,6.18,1.76,5.16S360.58,848.51,357.23,849.52Z" transform="translate(-105.25 -649.35)" />
            <path class="cls-4" d="M424.48,816.08l-.24.47c-1.57,3.07,3.35,5.6,4.91,2.53l.24-.47C431,815.54,426.05,813,424.48,816.08Z" transform="translate(-105.25 -649.35)" />
            <path class="cls-4" d="M430.93,853c3.34-1,1.59-6.18-1.76-5.16S427.58,854,430.93,853Z" transform="translate(-105.25 -649.35)" />
            <path class="cls-4" d="M417.76,851.21l.88-.27a2.61,2.61,0,0,0,1.72-3.37A2.85,2.85,0,0,0,419,846a2.91,2.91,0,0,0-2.09-.2l-.88.27a2.61,2.61,0,0,0-1.72,3.37,2.85,2.85,0,0,0,1.38,1.59A2.91,2.91,0,0,0,417.76,851.21Z" transform="translate(-105.25 -649.35)" />
            <path class="cls-4" d="M411,838.34a2.81,2.81,0,0,0,3.5,3.31c2.64-.8,2.1-4.19.11-5.07a2.62,2.62,0,0,0-1.86-.08A2.37,2.37,0,0,0,411,838.34Z" transform="translate(-105.25 -649.35)" />
            <path class="cls-4" d="M403.08,836.48c3.34-1,1.59-6.18-1.75-5.16S399.73,837.5,403.08,836.48Z" transform="translate(-105.25 -649.35)" />
            <path class="cls-4" d="M377.28,822c-3.34,1-1.59,6.18,1.76,5.16S380.62,821,377.28,822Z" transform="translate(-105.25 -649.35)" />
            <path class="cls-4" d="M407.09,817c3.34-1,1.59-6.18-1.75-5.16S403.74,818,407.09,817Z" transform="translate(-105.25 -649.35)" />
            <path class="cls-4" d="M431.43,831.7c3.34-1,1.59-6.18-1.75-5.16S428.08,832.72,431.43,831.7Z" transform="translate(-105.25 -649.35)" />
            <path class="cls-4" d="M403.17,859.49c3.34-1,1.59-6.18-1.75-5.16S399.82,860.5,403.17,859.49Z" transform="translate(-105.25 -649.35)" />
            <path class="cls-4" d="M438.05,873.91l-.88.27a2.61,2.61,0,0,0-1.72,3.37,2.85,2.85,0,0,0,1.38,1.59,2.91,2.91,0,0,0,2.09.2l.88-.27a2.61,2.61,0,0,0,1.72-3.37,2.85,2.85,0,0,0-1.38-1.59A2.91,2.91,0,0,0,438.05,873.91Z" transform="translate(-105.25 -649.35)" />
            <path class="cls-4" d="M452.54,845.44c3.34-1,1.59-6.18-1.76-5.16S449.19,846.46,452.54,845.44Z" transform="translate(-105.25 -649.35)" />
            <path class="cls-4" d="M472,833.66c3.34-1,1.59-6.18-1.76-5.16S468.67,834.68,472,833.66Z" transform="translate(-105.25 -649.35)" />
            <path class="cls-4" d="M487.47,849a2.62,2.62,0,0,0-1.85-.08c-3.12.95-1.8,5.51,1.12,5.28a3,3,0,0,0,.64-.12C490,853.24,489.48,849.84,487.47,849Z" transform="translate(-105.25 -649.35)" />
            <path class="cls-4" d="M485.33,814.4a2.48,2.48,0,0,0-1.42,1,2.93,2.93,0,0,0,1.33,4.06,2.62,2.62,0,0,0,1.84.07C490.43,818.54,488.68,813.38,485.33,814.4Z" transform="translate(-105.25 -649.35)" />
            <path class="cls-4" d="M489.73,801.12c3.34-1,1.59-6.18-1.76-5.16S486.38,802.14,489.73,801.12Z" transform="translate(-105.25 -649.35)" />
            <path class="cls-4" d="M456.52,817.35c3.34-1,1.59-6.18-1.75-5.16S453.17,818.37,456.52,817.35Z" transform="translate(-105.25 -649.35)" />
            <path class="cls-4" d="M438.32,800.81c3.34-1,1.59-6.18-1.76-5.16S435,801.83,438.32,800.81Z" transform="translate(-105.25 -649.35)" />
            <path class="cls-4" d="M411.36,776.91a3.12,3.12,0,0,0-.13,2.39,3.34,3.34,0,0,0,1.58,1.87,2.94,2.94,0,0,0,3.53-.62,2.69,2.69,0,0,0,.67-1.9,2.85,2.85,0,0,0-.28-1,2.33,2.33,0,0,0-.41-1,2.92,2.92,0,0,0-5,.27Zm2.76,3.86h0Z" transform="translate(-105.25 -649.35)" />
            <path class="cls-4" d="M452.67,775.8l-.64-.33c-3.17-1.63-5.6,3.13-2.43,4.76l.65.33C453.41,782.19,455.84,777.43,452.67,775.8Z" transform="translate(-105.25 -649.35)" />
            <path class="cls-4" d="M465.21,791.74a2.65,2.65,0,0,0-1.58,1.31,2.74,2.74,0,0,0-.14,2.05l.3.87a2.91,2.91,0,0,0,1.38,1.59,2.85,2.85,0,0,0,2.09.2,2.65,2.65,0,0,0,1.58-1.31,2.74,2.74,0,0,0,.14-2.05l-.3-.87a2.91,2.91,0,0,0-1.38-1.59A2.85,2.85,0,0,0,465.21,791.74Z" transform="translate(-105.25 -649.35)" />
            <path class="cls-4" d="M422.82,800.72a2.65,2.65,0,0,0,1.58-1.31,2.74,2.74,0,0,0,.14-2.05l-.3-.87a2.91,2.91,0,0,0-1.38-1.59,2.85,2.85,0,0,0-2.09-.2,2.65,2.65,0,0,0-1.58,1.31,2.74,2.74,0,0,0-.14,2.05l.3.87a2.91,2.91,0,0,0,1.38,1.59A2.85,2.85,0,0,0,422.82,800.72Z" transform="translate(-105.25 -649.35)" />
            <path class="cls-4" d="M437.58,767.47l-.16-.48c-1.13-3.32-6.33-1.74-5.2,1.58l.16.48C433.51,772.37,438.71,770.8,437.58,767.47Z" transform="translate(-105.25 -649.35)" />
            <path class="cls-4" d="M452.35,752.39c3.34-1,1.59-6.18-1.76-5.16l-.48.15c-3.34,1-1.59,6.18,1.76,5.16Z" transform="translate(-105.25 -649.35)" />
            <path class="cls-4" d="M491.67,764.35a3,3,0,0,0,1.78.28l-3.13-1.8a2.69,2.69,0,0,0,.24.49A2.93,2.93,0,0,0,491.67,764.35Z" transform="translate(-105.25 -649.35)" />
            <path class="cls-4" d="M501.4,773.06a2.65,2.65,0,0,0-1.58,1.31,2.74,2.74,0,0,0-.14,2.05l.3.87a2.91,2.91,0,0,0,1.38,1.59,2.85,2.85,0,0,0,2.09.2,2.65,2.65,0,0,0,1.58-1.31,2.74,2.74,0,0,0,.14-2.05l-.3-.87a2.91,2.91,0,0,0-1.38-1.59A2.85,2.85,0,0,0,501.4,773.06Z" transform="translate(-105.25 -649.35)" />
            <path class="cls-4" d="M514.42,811.33a2.73,2.73,0,0,0-1.58,1.31l-.58,1.14a2.72,2.72,0,0,0-.14,2.05,2.87,2.87,0,0,0,1.38,1.59,2.82,2.82,0,0,0,2.09.2,2.73,2.73,0,0,0,1.58-1.31l.58-1.14a2.72,2.72,0,0,0,.14-2.05,2.87,2.87,0,0,0-1.38-1.59A2.82,2.82,0,0,0,514.42,811.33Z" transform="translate(-105.25 -649.35)" />
            <path class="cls-4" d="M502.79,836.91a2.91,2.91,0,0,0-1.38-1.59,2.85,2.85,0,0,0-2.09-.2,2.65,2.65,0,0,0-1.58,1.31,2.74,2.74,0,0,0-.14,2.05l.3.87a2.91,2.91,0,0,0,1.38,1.59,2.85,2.85,0,0,0,2.09.2,2.65,2.65,0,0,0,1.58-1.31,2.74,2.74,0,0,0,.14-2.05Z" transform="translate(-105.25 -649.35)" />
            <path class="cls-4" d="M502.37,795.8l-.88.27a2.61,2.61,0,0,0-1.72,3.37,2.85,2.85,0,0,0,1.38,1.59,2.91,2.91,0,0,0,2.09.2l.88-.27a2.61,2.61,0,0,0,1.72-3.37,2.85,2.85,0,0,0-1.38-1.59A2.91,2.91,0,0,0,502.37,795.8Z" transform="translate(-105.25 -649.35)" />
            <path class="cls-4" d="M480.7,780.91a2.68,2.68,0,0,0,.14-2.05,3.42,3.42,0,0,0-.49-.87,2.45,2.45,0,0,0-.89-.72,2.91,2.91,0,0,0-2.09-.2l-.88.27a2.61,2.61,0,0,0-1.72,3.37,2.85,2.85,0,0,0,1.38,1.59,2.91,2.91,0,0,0,2.09.2l.47-.14.41-.12A2.71,2.71,0,0,0,480.7,780.91Z" transform="translate(-105.25 -649.35)" />
            <path class="cls-4" d="M465.39,769.54c3.34-1,1.59-6.18-1.76-5.16S462,770.56,465.39,769.54Z" transform="translate(-105.25 -649.35)" />
            <path class="cls-4" d="M546.2,795,545,794.3a3.1,3.1,0,0,0,.8,1.35Z" transform="translate(-105.25 -649.35)" />
            <path class="cls-4" d="M518.79,782.42a2.37,2.37,0,0,0,1.79-2.18l-4.42-2.54C514.08,779.28,515.79,783.33,518.79,782.42Z" transform="translate(-105.25 -649.35)" />
            <path class="cls-4" d="M532.95,794.13c3.34-1,1.59-6.18-1.75-5.16S529.6,795.15,532.95,794.13Z" transform="translate(-105.25 -649.35)" />
            <path class="cls-4" d="M469.46,851.63c3.34-1,1.59-6.18-1.76-5.16S466.11,852.64,469.46,851.63Z" transform="translate(-105.25 -649.35)" />
            <path class="cls-4" d="M454.42,870.85c-3.34,1-1.59,6.18,1.76,5.16a2.8,2.8,0,0,0,.83-.4,2.73,2.73,0,0,0,.21-4A2.56,2.56,0,0,0,454.42,870.85Z" transform="translate(-105.25 -649.35)" />
            <path class="cls-4" d="M414.35,875.29c3.34-1,1.59-6.18-1.76-5.16S411,876.3,414.35,875.29Z" transform="translate(-105.25 -649.35)" />
            <path class="cls-4" d="M428.62,860.39c3.34-1,1.59-6.18-1.76-5.16S425.27,861.41,428.62,860.39Z" transform="translate(-105.25 -649.35)" />
            <path class="cls-4" d="M400.26,881.61c1.61-1.64.11-5.09-2.56-4.57l1.43,2.53Q399.7,880.58,400.26,881.61Z" transform="translate(-105.25 -649.35)" />
            <path class="cls-4" d="M383.74,896.18a2.65,2.65,0,0,0-1.58,1.31,2.74,2.74,0,0,0-.14,2.05l.3.87A2.91,2.91,0,0,0,383.7,902a2.85,2.85,0,0,0,2.09.2,2.65,2.65,0,0,0,1.58-1.31,2.74,2.74,0,0,0,.14-2.05l-.3-.87a2.91,2.91,0,0,0-1.38-1.59A2.85,2.85,0,0,0,383.74,896.18Z" transform="translate(-105.25 -649.35)" />
            <path class="cls-4" d="M366.21,892.44c-3.34,1-1.59,6.18,1.75,5.16S369.56,891.42,366.21,892.44Z" transform="translate(-105.25 -649.35)" />
            <path class="cls-4" d="M521.89,837.23l1.71-3A2.43,2.43,0,0,0,521.89,837.23Z" transform="translate(-105.25 -649.35)" />
            <path class="cls-4" d="M443.29,739.77a2.43,2.43,0,0,0,1.72-3l-3.64-2.09C438.26,735.8,440,740.77,443.29,739.77Z" transform="translate(-105.25 -649.35)" />
            <path class="cls-4" d="M434.16,780.06c-3.34,1-1.59,6.18,1.76,5.16S437.51,779,434.16,780.06Z" transform="translate(-105.25 -649.35)" />
            <path class="cls-4" d="M424.56,757.91c3.34-1,1.59-6.18-1.76-5.16S421.22,758.93,424.56,757.91Z" transform="translate(-105.25 -649.35)" />
            <path class="cls-4" d="M403.86,801.36a2.56,2.56,0,0,0,1.35-3.94,2.6,2.6,0,0,0-3.11-1.22c-2.4.73-2.18,3.6-.61,4.78A2.56,2.56,0,0,0,403.86,801.36Z" transform="translate(-105.25 -649.35)" />
            <path class="cls-4" d="M391.31,818.94c3.34-1,1.59-6.18-1.75-5.16S388,820,391.31,818.94Z" transform="translate(-105.25 -649.35)" />
            <path class="cls-4" d="M388.69,803.51c3.34-1,1.59-6.18-1.76-5.16S385.34,804.53,388.69,803.51Z" transform="translate(-105.25 -649.35)" />
            <path class="cls-4" d="M305.84,888.74a2.65,2.65,0,0,0-1.58,1.31,2.74,2.74,0,0,0-.14,2.05l.3.87a2.91,2.91,0,0,0,1.38,1.59,2.85,2.85,0,0,0,2.09.2,2.65,2.65,0,0,0,1.58-1.31,2.74,2.74,0,0,0,.14-2.05l-.3-.87a2.91,2.91,0,0,0-1.38-1.59A2.85,2.85,0,0,0,305.84,888.74Z" transform="translate(-105.25 -649.35)" />
            <path class="cls-4" d="M326.56,888l.48-.15c3.34-1,1.59-6.18-1.75-5.16l-.48.15C321.46,883.88,323.21,889,326.56,888Z" transform="translate(-105.25 -649.35)" />
            <path class="cls-11" d="M423.1,943.57c-1.71-5.85-3.4-11.71-5.19-17.54-4.67-15.24-10-30.26-17.65-44.42q-.56-1-1.13-2L397.7,877a98.73,98.73,0,0,0-8.26-12.59,47.84,47.84,0,0,0-3.69-4.12c-.54-.54-1.09-1.06-1.66-1.56-2.65-2.33-5.15-5-7.94-7.18a16.69,16.69,0,0,0-3-1.83c-.44-.21-.88-.41-1.33-.6-2.21-.91-4.48-1.53-6.78-2.63a21.81,21.81,0,0,1,4.79,3.15,27.09,27.09,0,0,1,3.79,4c6.27,8.1,9.11,19.88,12,28.58,3.39,10.37,6.13,20.91,8.93,31.43,5.53,20.77,11.35,41.78,22.38,60.64l.06.1a108,108,0,0,0,13.58,18.48l.91-.51c.52-.28,1.06-.55,1.6-.81l3.81-6.63c-2.54-6.16-4.79-12.43-6.87-18.76C427.54,958.73,425.31,951.15,423.1,943.57Z" transform="translate(-105.25 -649.35)" />
            <path class="cls-12" d="M430.55,992.93c-2.67,1.48-5.23,3.14-7.75,4.86-2.73,1.86-5.43,3.78-8.18,5.6-2,1.35-4.12,2.65-6.27,3.82-1.53.84-3.09,1.62-4.71,2.31-2.38,1-4.81,1.92-7.26,2.76-18.94,6.57-38.42,9.78-36.87,35.05v.06c0,.72.1,1.45.18,2.21s.21,1.72.33,2.58c.63,4.4,1.65,8.78,2.5,13.15l.07.39a60.22,60.22,0,0,1,1.4,14.62c-.35,6.55-2.44,12.93-2.13,19.5a33.18,33.18,0,0,0,2.59,11l68.6-119.22c-.54.26-1.08.53-1.6.81Z" transform="translate(-105.25 -649.35)" />
        </g>
    </g>
</svg>